<?xml version="1.0" encoding="utf-8"?>
<!-- Generator: Adobe Illustrator 20.1.0, SVG Export Plug-In . SVG Version: 6.00 Build 0)  -->
<svg version="1.1" id="Layer_2" xmlns="http://www.w3.org/2000/svg" xmlns:xlink="http://www.w3.org/1999/xlink" x="0px" y="0px"
	 viewBox="0 0 100 100" style="enable-background:new 0 0 100 100;" xml:space="preserve">
<style type="text/css">
	.st0{fill:#9DBB6A;}
</style>
<title>Artboard 1</title>
<g>
	<path class="st0" d="M91.8,26.4c-1.6-6.5-8-14.2-16.1-16.3c2.6,4.2,3,8.2,2.7,11.1c-0.2,2.6-1,5.1-2.3,7.3
		c-0.5,0.7-1.4,0.9-2.2,0.5c-0.7-0.5-0.9-1.4-0.5-2.2l0,0c0.3-0.4,6-9.5-3.8-19.2c-6.5-6.3-15.7-6.1-19.4-5.7L50,1.9
		c-5.3,0.5-16,1.6-20.3,11.1c-3,6.5-1.9,10.2-1.4,12.2c0.1,0.2,0.1,0.4,0.1,0.5l0.1,0.1c0.5,2,2,7.8-1.3,14.1
		c2.4,2.4,3.8,5.5,3.9,8.8c6.7-1.2,13.6-0.9,20.1,0.8l0.7-4.2c0.1-0.9,1-1.4,1.8-1.3c0.1,0,0.1,0,0.2,0.1c0,0,3.5,1.1,6-0.5
		c1.5-0.9,2.4-2.6,2.8-5.1c0.1-0.9,0.9-1.4,1.8-1.3c0.9,0.1,1.4,0.9,1.3,1.8l0,0c-0.5,3.4-2,5.9-4.3,7.2c-2.4,1.4-5.1,1.4-6.8,1.2
		l-0.8,4.3c-0.1,0.9-1,1.4-1.8,1.3c-0.1,0-0.1,0-0.2-0.1c-12-3.6-22-0.9-22.1-0.8c-0.9,0.3-1.7-0.3-2-1.1c-0.1-0.2-0.1-0.4-0.1-0.6
		c0.5-5.9-3.5-9-3.6-9.1c-0.7-0.5-0.9-1.4-0.5-2.1c3.4-5.7,2-10.9,1.5-12.9l-0.1-0.1c-0.1-0.1-0.1-0.3-0.1-0.5
		c-0.5-2-1.6-6.2,0.9-12.7c-9.6,0.1-16.1,5.9-18.9,11.1c-2.6,4.9-2.6,10.1,0.3,13.8c2.4,3.2,5.1,3.7,7.2,3.7
		c2.7,0.1,3.1-0.3,4.2-1.1l0.1-0.1c0.7-0.5,1.6-0.5,2.2,0.3c0.5,0.7,0.5,1.6-0.3,2.2l-0.1,0.1c-1.4,1.2-2.4,1.8-5.6,1.8h-0.7
		c-2.7-0.1-5-0.9-7-2.3c-1.2,0.5-2.1,1.4-2.6,2.6c-1.1,2.8,0.1,6.1,0.6,7.2c0.3,0.1,2.1-0.6,2.8-0.7c1.1-0.1,5.2-0.3,6.1,0.4
		c0-1.3-1.7-1.9,1.4-2.5c1.6-0.3,3.3,0.1,5,0.9c1.8,0.1,3.9,1.7,4.8,2.5c6.8,5.5,30.5,22,49.6,8.2C93.9,48,93.6,33.7,91.8,26.4z
		 M31,30.2c-1.4-3.4,0.2-4.8,0.2-4.8l2-1.9c2.2-1.7,4.1,0.4,4.9,1.8c0.9,1.5,2.4,3.9,0.7,7c-0.8,1.4-3,1.3-4.3,1.3
		C32.9,33.7,32.1,33.1,31,30.2L31,30.2z M43.8,42.1c-0.2,1.6-2.9,0.3-2.9,0.3s-4.7,1.5-3.1-1.6s2.3-5.9,3.6-5.1
		C41.4,35.6,44,40.5,43.8,42.1z M57.2,30.8c-2.2,3.1-4.3,3.6-6.5,3.6c-2.2-0.1-4.3,0.1-5.8-2.2c-2.3-3.7,0.3-6.3,1.9-7.8
		c1.4-1.4,3.8-3.5,6.9-1.3l3.9,3.2C57.7,26.2,59.9,27.3,57.2,30.8L57.2,30.8z"/>
	<path class="st0" d="M87.5,55.3c-0.9,1.1-2.8,3-3.9,4.1c0.3,0.1,0.5,0.3,0.9,0.5c3.7,2.4,3.9,5.5,2.4,9.1c-1,2.2-2.6,3.2-3.8,4.2
		c-1.3,1.1-2,1.8-3.9,2.8c0-1.9-0.1-3.8-0.4-5.7c-0.4-2.2-1.1-3.2-2-5.5c-5.3,3.6-11.5,5.5-17.9,5.5c-11.5,0-22.3-5.6-29.3-10.1
		c-0.5,0.6-0.9,1.2-1.4,1.8c-1.1,1.6-3.1,2-4.7,0.7c-1.1-0.9-2-1.8-2.8-2.8c-1.2-1.4-2.3-2.8-3.5-4.1c-0.7-0.9-1.4-1.1-2.4-1.4
		c-0.9-0.1-3.9-0.1-5.5,0c-0.9,0.2-1.6,0.4-2.5,0.6c-0.5,0.1-1.3,0.4-1.3,0.9c0,0.3,0.5,0.6,0.7,0.7c0.1,0.1,0.3,0.1,0.4,0.1
		c2.1,0.1,3.7,1.6,4.5,3.3c2,4.1,4.3,11.8,6.5,16.1c2.1,4.3,4.4,10.5,12.6,16.4c9.5,6.8,28.8,7.8,40-0.3c2.6-1.9,6.8-5.7,8.2-7.3
		c2.4-2.9,8-7,10.5-9.7c4.3-4.7,5.5-10.1,2.6-15.9C90.7,57.4,89.3,56.4,87.5,55.3z"/>
</g>
</svg>
