<?xml version="1.0" encoding="utf-8"?>
<!-- Generator: Adobe Illustrator 20.1.0, SVG Export Plug-In . SVG Version: 6.00 Build 0)  -->
<svg version="1.1" id="Layer_1" xmlns="http://www.w3.org/2000/svg" xmlns:xlink="http://www.w3.org/1999/xlink" x="0px" y="0px"
	 viewBox="0 0 100 100" style="enable-background:new 0 0 100 100;" xml:space="preserve">
<style type="text/css">
	.st0{fill:#1D686C;}
	.st1{fill:#454545;}
	.st2{fill:#BED630;}
	.st3{fill:#88C540;}
	.st4{fill:#539547;}
	.st5{fill:#FFFFFF;}
	.st6{fill:#B5B6B6;}
	.st7{display:none;}
	.st8{display:inline;fill:#9DBB6A;}
</style>
<g id="Layer_1_1_">
	<path class="st0" d="M46.7,51.7c-0.3,0-0.7-0.1-1.1-0.3c-9.9-6.3-9.4-25.3-9.4-26.1c0-1.1,0.9-1.9,1.9-1.9c0,0,0,0,0.1,0
		c1.1,0,1.9,0.9,1.9,2l0,0c0,0.1-0.1,4.5,0.9,9.7c0.9,4.5,2.7,10.5,6.9,13.1c0.9,0.6,1.1,1.7,0.5,2.7C48,51.4,47.4,51.7,46.7,51.7z"
		/>
	<path class="st1" d="M50.9,9.2C43,4,38.5,6.9,38.5,6.9s-2.5,2.1-4,4.7C33,14.4,30.2,16,30.2,16s-2.9,1.3-4.6,1.5
		c-1.7,0.2-3.8,0.1-6.3,1.7c-2.6,1.7-4.1,5.4-3.5,12.2c0.7,6.7,5.5,14.6,8.5,14.6c3.1,0,6.4-1.9,7.5-7.8c1.1-5.9,3.3-7.3,3.3-7.3
		s3.1-2,6.5-4.2c3.5-2.2,3.1-0.9,8.6-0.1c5.5,0.9,7.9,0,9.9-2.8C61.9,21.1,58.7,14.5,50.9,9.2z"/>
	<ellipse transform="matrix(0.8437 -0.5368 0.5368 0.8437 -3.2324 24.4311)" class="st2" cx="40.3" cy="17.8" rx="2.1" ry="2.1"/>
	<ellipse transform="matrix(0.8437 -0.5368 0.5368 0.8437 -3.0235 27.8309)" class="st0" cx="46.3" cy="19.1" rx="2.1" ry="2.1"/>
	<ellipse transform="matrix(0.8437 -0.5368 0.5368 0.8437 0.167 24.2213)" class="st3" cx="41.7" cy="11.8" rx="2.1" ry="2.1"/>
	<ellipse transform="matrix(0.8437 -0.5368 0.5368 0.8437 0.3759 27.6211)" class="st4" cx="47.6" cy="13.2" rx="2.1" ry="2.1"/>
	<path class="st5" d="M29.7,27l-2.3,1.5l1.4,2.3c0.5,0.7,0.3,1.7-0.5,2.3c-0.7,0.5-1.7,0.3-2.3-0.5l-1.4-2.3l-2.3,1.5
		c-0.7,0.5-1.7,0.3-2.3-0.5c-0.5-0.7-0.3-1.7,0.5-2.3l2.3-1.5l-1.4-2.1C21,24.5,21.2,23.5,22,23c0.8-0.5,1.7-0.3,2.3,0.5l1.4,2.3
		l2.3-1.5c0.7-0.5,1.7-0.3,2.3,0.5C30.6,25.5,30.4,26.5,29.7,27z"/>
	<path class="st6" d="M82.1,21.5c1.1-1.6,1.4-4.2,1.4-4.2c0-1.5-0.3-2.8-1.1-4.3c0.5-3,1.3-11.1-0.5-12.1c-1.9-1.1-8.1,5.9-8.1,5.9
		C72.3,6.3,70.7,6,68.9,6c0,0-4.2-0.3-5.6,0.3c-1.6-1.7-5.8-5.4-7.4-4.5s-0.9,9.4-0.4,11.3c0.3,1.3-0.5,1.7-0.9,4.3
		c0,0-0.1,5.1,4.7,7.3c0,0,0.3,1.1,0.4,2.5c-1.5,0.7-10.5-0.1-13.5-2.8c0.1-2.6,0.2-4.3-0.5-5.7c-4.1-3.9-7.2,1.3-7.2,1.3
		S37,21.5,40.7,28c6.2,11.7,18.6,12.3,18.6,12.3s-3.2,4.2-4.2,7.3c-8.9-3.8-19.4,1.6-21.4,2.5c-1.4-0.9-3.4-10.9-4.2-16.5
		c-1.5-4.3-5.5-3.9-6.2,0c-0.7,3.9,3.4,18.9,4.8,23.3c1.4,4.4,3.2,3.9,3.2,3.9l2.9-0.2c0,0,2.1,4.7,6.5,8.5
		c-8.1-1.4-16.5-9.3-19.9-14.4c-2.7-4-6.3-12.5-5-21.7c-0.1-0.5-0.2-1.1-0.2-1.5c-0.7-6.7,0.9-10.5,3.5-12.2
		c1.3-0.9,2.5-1.2,3.6-1.4c3.1-4,5-4.7,3.8-6.3c-0.7-1.1-2.7-2.2-4-1.6C8.4,16.4,8.4,38.3,8.4,38.3c0,20.2,17.5,36.5,39.2,36.5
		s39.2-16.3,39.2-36.5C86.7,27.2,84.3,24.4,82.1,21.5z"/>
	<path class="st0" d="M58.5,42.3c-0.5,0-0.9,0-0.9,0c-1.1-0.1-1.9-0.9-1.9-2c0.1-1.1,0.9-1.9,2-1.9l0,0c0.2,0,19.4,0.7,26.5-12.7
		c0.5-0.9,1.7-1.3,2.6-0.8c0.9,0.5,1.3,1.7,0.8,2.6c-3.5,6.5-9.7,11.1-18.3,13.4C64.6,42.2,60.3,42.3,58.5,42.3z"/>
	<path class="st2" d="M74.7,66c-0.3,0-0.7-0.1-0.9-0.3c-8.8-5-17.9-6.9-26.9-5.6c-6.8,0.9-11.1,3.4-11.1,3.5
		c-0.9,0.5-2.1,0.2-2.6-0.7c-0.5-0.9-0.2-2.1,0.7-2.6c0.2-0.1,4.9-2.8,12.3-3.9c6.9-1,17.6-0.7,29.6,6.1c0.9,0.5,1.3,1.7,0.7,2.6
		C76.1,65.7,75.4,66,74.7,66z"/>
	<path class="st3" d="M81.5,47.3c-2.4,0-5.6-0.1-9.9-0.5c-7-0.6-13.7-1.5-13.8-1.5c-1.1-0.1-1.8-1.1-1.7-2.2
		c0.1-1.1,1.1-1.8,2.2-1.7c15.1,2.1,26.1,2.4,27.9,1.6c0.8-0.7,1.9-0.6,2.6,0.1c0.7,0.8,0.7,2-0.1,2.7
		C88.1,46.6,86.7,47.3,81.5,47.3z M86.1,43.1L86.1,43.1L86.1,43.1z"/>
	<path class="st4" d="M80.2,61.2c-0.7,0-1.5-0.5-1.8-1.2c-0.1-0.2-1.3-2-11.5-6.9c-5.5-2.6-10.8-4.8-10.9-4.8
		c-1-0.4-1.5-1.5-1.1-2.5c0.4-1,1.5-1.5,2.5-1.1c0.1,0,5.6,2.3,11.3,5c10.6,5.1,12.7,7.3,13.3,8.8c0.4,1-0.1,2.1-1.1,2.5
		C80.7,61.1,80.5,61.2,80.2,61.2z"/>
	<path class="st5" d="M78.7,15c0.3,1.6-0.7,2.9-2.3,3.3c-1.6,0.3-4.7-0.3-5-1.9s2.2-3.5,3.8-3.8C76.9,12.3,78.4,13.4,78.7,15z"/>
	<path class="st5" d="M59.5,15.1c-0.3,1.6,0.7,2.9,2.3,3.3c1.6,0.3,4.7-0.3,5-1.9s-2.2-3.5-3.8-3.8C61.3,12.4,59.8,13.5,59.5,15.1z"
		/>
	<ellipse class="st3" cx="62.9" cy="15.6" rx="1.3" ry="2.4"/>
	<ellipse class="st3" cx="75.4" cy="15.6" rx="1.3" ry="2.4"/>
	<path class="st5" d="M71.1,19.6c0,0.5-0.9,1.1-1.9,1.1c-1.1,0-1.9-0.7-1.9-1.1c0-0.7,0.9-0.5,1.9-0.5C70.2,19.2,71.1,19,71.1,19.6z
		"/>
	<path class="st4" d="M62.2,74.8c-0.1,0-0.2,0-0.3,0C49,72.6,36.6,49.5,36,48.6c-0.5-0.9-0.1-2.1,0.8-2.6c0.9-0.5,2.1-0.1,2.6,0.8
		C42.7,53,53.3,69.5,62.5,71c1.1,0.2,1.7,1.2,1.6,2.2C63.9,74.1,63.1,74.8,62.2,74.8z"/>
	<path class="st0" d="M55.7,89.3l-6.5-1.6c-0.5-0.1-1.1,0-1.5,0.3c-0.2,0.1-0.4,0.3-0.6,0.5c-1.2-1.3-1-2.7-0.7-4.3
		c0.3-2.1,1.7-3.7,3.1-5.3c1.1-1.3,2.3-2.6,3-4.3l0.1-0.1c0.3-0.7,6.5-18.9-0.3-29.5c-0.6-0.9-1.7-1.1-2.7-0.6
		c-0.9,0.6-1.1,1.7-0.6,2.7c5.6,8.7,0.3,24.8-0.1,26.1c-0.5,1.1-1.5,2.2-2.4,3.3c-1.6,1.9-3.5,4-4,7.1c-0.7,4.2,0.3,7,3.5,9.1
		l-0.2,0.8c-0.2,0.9,0.3,1.8,1.1,2.2l6.4,2.7c0.3,0.1,0.5,0.2,0.7,0.2c0.3,0,0.6-0.1,0.9-0.2c0.5-0.3,0.9-0.7,1-1.3l1.1-5.3
		C57.3,90.6,56.7,89.6,55.7,89.3z"/>
</g>
<g id="Layer_2" class="st7">
	<path class="st8" d="M207.3-34.8c-5.9-23.5-29-51.5-58.1-59.1c9.3,15.4,10.7,29.6,9.8,40c-1.4,15.5-8.2,25.9-8.4,26.3
		c-1.7,2.6-5.3,3.3-7.9,1.6c-2.6-1.7-3.3-5.3-1.6-7.9c1-1.5,21.6-34.4-13.9-69.4c-23.3-22.9-56.7-22-70-20.5l-1.2,0.1
		c-18.7,2.1-57.6,6.3-73.2,40.7c-10.7,23.4-7,36.9-5,44.1c0.2,0.7,0.4,1.3,0.5,1.9l0.1,0.5c1.8,7.2,7.1,28.1-4.5,51
		c5.1,5,13.3,15.7,14.2,32C0.8,44.1,28.4,41,61,49.3L63.7,34c0.3-1.6,1.3-3.1,2.7-3.9c1.4-0.9,3.1-1.1,4.7-0.5
		c0.1,0,12.5,3.8,21.7-1.8c5.4-3.3,8.8-9.5,10.2-18.3c0.5-3.1,3.4-5.2,6.5-4.7s5.2,3.4,4.7,6.5c-2,12.3-7.2,21.1-15.6,26.3
		c-8.6,5.3-18.5,5.2-24.8,4.3l-2.7,15.7c-0.3,1.6-1.2,3-2.6,3.9c-0.9,0.6-2,0.9-3,0.9c-0.5,0-1.1-0.1-1.6-0.2
		c-43.5-12.9-79.7-3-80.1-2.9c-1.8,0.5-3.8,0.1-5.2-1.1c-1.4-1.2-2.2-3-2-4.9c2-21.5-12.5-32.3-13.1-32.8c-2.4-1.7-3.1-5-1.6-7.5
		c12.1-20.5,7.3-39.5,5.5-46.6l-0.1-0.5c-0.1-0.5-0.3-1.1-0.4-1.7c-2-7.4-6-22.3,3.2-46c-34.8,0.5-58.4,21.4-68.3,40.2
		c-9.5,17.9-9.2,36.5,1,49.7c8.8,11.6,18.6,13.3,26.1,13.4c9.9,0.2,11.2-0.8,15.2-4l0.5-0.4c2.5-2,6-1.6,8,0.9s1.6,6-0.9,8l-0.5,0.4
		C-54.1,30.7-57.6,33-69,33c-0.8,0-1.5,0-2.4,0c-9.8-0.2-18.2-3-25.3-8.4c-4.6,2.2-7.7,5.3-9.4,9.6c-4,10,0.4,22,2.1,25.9
		c1.2,0.2,7.5-2.1,10.4-2.5c3.9-0.6,18.9-1.1,22,1.5c0-4.5-6.3-6.9,4.9-9.1c5.7-1.1,11.8,0.4,18.1,3.4c6.7,0.6,14.1,6.2,17.4,9.2
		C-6.5,82.3,79,142.2,148,92.2C215,43.5,213.9-8.3,207.3-34.8z M-12.7-20.8c-5-12.1,0.5-17.4,0.5-17.4l7.2-6.9
		c7.8-6.1,14.7,1.5,17.6,6.4c3.3,5.5,8.7,14.3,2.4,25.6C12.2-8,4.3-8.5-0.8-8.4C-5.8-8.3-8.4-10.3-12.7-20.8z M33.6,22
		c-0.8,5.7-10.4,1.1-10.4,1.1s-16.9,5.4-11.1-5.7C17.8,6.3,20.4-4,24.9-1.2C24.8-1.2,34.4,16.4,33.6,22z M82.3-18.7
		C74.2-7.5,66.9-5.6,58.8-6c-7.9-0.4-15.8,0.5-21-7.7C29.4-27,39-36.3,44.9-42c5.2-5.1,13.7-12.7,25.1-4.9l14,11.4
		C83.8-35.5,91.7-31.6,82.3-18.7z"/>
	<path class="st8" d="M191.7,69.7c-3.4,4.1-10.1,10.9-14.3,15c0.9,0.5,1.8,1.2,3,2c13.4,8.9,14.3,20,8.6,32.9
		c-3.5,7.8-9.3,11.5-13.7,15.3c-4.4,3.9-7.2,6.4-14.1,10c0-6.4-0.3-14.3-1.5-20.4c-1.5-7.9-3.8-11.4-7.2-20
		c-21.1,14.2-43.2,19.7-64.8,19.7c-41.4,0-80.6-20.1-105.9-36.7c-1.7,2.1-3.4,4.3-5,6.6c-4.1,6-11.2,7.1-17.1,2.5
		c-3.8-3-7.1-6.6-10.3-10.2c-4.4-4.9-8.4-10-12.7-15c-2.6-3.1-5.2-3.9-8.7-5.1c-3.1-0.5-14.4-0.2-19.9-0.1c-3,0.6-6,1.3-9,2.1
		c-1.7,0.4-4.3,1.3-4.3,3.4c0,1.3,1.8,2.2,2.7,2.4c1.5,0.3,1,0.3,1.5,0.3c7.6,0.6,13.2,6,16.2,12c7.4,14.7,15.8,42.8,23.5,58.3
		s15.8,37.7,45.5,59.3c34.2,24.9,104,28.3,144.7-1.1c9.5-6.9,24.6-20.5,29.7-26.5c8.8-10.5,29-25.4,38-35.2
		c15.5-16.9,19.9-36.4,9.6-57.4C203,77.5,198.3,73.8,191.7,69.7z"/>
</g>
</svg>
